<?xml version="1.0" encoding="UTF-8" standalone="no"?>
<svg width="264px" height="80px" viewBox="0 0 264 80" version="1.1" xmlns="http://www.w3.org/2000/svg" xmlns:xlink="http://www.w3.org/1999/xlink" xmlns:sketch="http://www.bohemiancoding.com/sketch/ns">
    <!-- Generator: Sketch 3.1.1 (8761) - http://www.bohemiancoding.com/sketch -->
    <title>appstore</title>
    <desc>Created with Sketch.</desc>
    <defs></defs>
    <g id="Page-1" stroke="none" stroke-width="1" fill="none" fill-rule="evenodd" sketch:type="MSPage">
        <g id="appstore" sketch:type="MSLayerGroup" transform="translate(2.000000, 2.000000)">
            <g id="Group" sketch:type="MSShapeGroup">
                <path d="M260.062556,68.536 C260.062556,72.768 256.71188,76.196 252.567519,76.196 L7.28977444,76.196 C3.14736842,76.196 -0.215037594,72.768 -0.215037594,68.536 L-0.215037594,7.45 C-0.215037594,3.22 3.14736842,-0.22 7.28977444,-0.22 L252.565564,-0.22 C256.71188,-0.22 260.060602,3.22 260.060602,7.45 L260.062556,68.536 L260.062556,68.536 Z" id="Shape" stroke="#FFFFFF" fill-opacity="0.1" fill="#000000"></path>
                <g transform="translate(23.458647, 10.000000)" id="Shape" fill="#FFFFFF">
                    <path d="M33.4833083,27.568 C33.4266165,21.122 38.6422556,17.986 38.8807519,17.84 C35.9269173,13.434 31.3485714,12.832 29.7396992,12.784 C25.8944361,12.37 22.1645113,15.138 20.2057143,15.138 C18.2078195,15.138 15.1914286,12.824 11.9404511,12.892 C7.75699248,12.958 3.84330827,15.436 1.69684211,19.284 C-2.73293233,27.13 0.570827068,38.66 4.81488722,45.002 C6.93789474,48.108 9.41864662,51.576 12.6657143,51.454 C15.842406,51.32 17.0290226,49.382 20.8625564,49.382 C24.6609023,49.382 25.775188,51.454 29.0867669,51.376 C32.4960902,51.32 34.6425564,48.256 36.6912782,45.122 C39.1446617,41.562 40.1299248,38.056 40.1690226,37.876 C40.0888722,37.848 33.5478195,35.294 33.4833083,27.568 L33.4833083,27.568 Z"></path>
                    <path d="M27.2276692,8.612 C28.9362406,6.426 30.1052632,3.452 29.7807519,0.434 C27.3078195,0.546 24.215188,2.184 22.4342857,4.322 C20.8586466,6.206 19.4511278,9.294 19.8147368,12.198 C22.5926316,12.41 25.444812,10.764 27.2276692,8.612 L27.2276692,8.612 Z"></path>
                </g>
                <g transform="translate(80.150376, 34.000000)" id="Shape" fill="#FFFFFF">
                    <path d="M22.7646617,27.008 L18.3251128,27.008 L15.8932331,19.19 L7.44030075,19.19 L5.1237594,27.008 L0.801503759,27.008 L9.1762406,0.392 L14.3488722,0.392 L22.7646617,27.008 L22.7646617,27.008 Z M15.1601504,15.91 L12.9609023,8.96 C12.7282707,8.25 12.2923308,6.578 11.6491729,3.946 L11.5709774,3.946 C11.3148872,5.078 10.902406,6.75 10.3354887,8.96 L8.17533835,15.91 L15.1601504,15.91 L15.1601504,15.91 Z"></path>
                    <path d="M44.3016541,17.176 C44.3016541,20.44 43.4395489,23.02 41.7153383,24.914 C40.1709774,26.6 38.2532331,27.442 35.9640602,27.442 C33.4930827,27.442 31.7180451,26.534 30.6369925,24.718 L30.558797,24.718 L30.558797,34.828 L26.3909774,34.828 L26.3909774,14.134 C26.3909774,12.082 26.3381955,9.976 26.2365414,7.816 L29.9019549,7.816 L30.1345865,10.858 L30.212782,10.858 C31.6027068,8.566 33.7120301,7.422 36.5427068,7.422 C38.7556391,7.422 40.6030075,8.316 42.0809023,10.106 C43.5627068,11.898 44.3016541,14.254 44.3016541,17.176 L44.3016541,17.176 Z M40.0556391,17.332 C40.0556391,15.464 39.6451128,13.924 38.8201504,12.712 C37.9189474,11.448 36.7088722,10.816 35.1918797,10.816 C34.163609,10.816 33.2291729,11.168 32.3944361,11.862 C31.5577444,12.562 31.0103759,13.476 30.7542857,14.608 C30.6252632,15.136 30.5607519,15.568 30.5607519,15.908 L30.5607519,19.108 C30.5607519,20.504 30.9790977,21.682 31.8157895,22.644 C32.6524812,23.606 33.7393985,24.086 35.0765414,24.086 C36.6463158,24.086 37.8681203,23.466 38.7419549,22.23 C39.6177444,20.992 40.0556391,19.36 40.0556391,17.332 L40.0556391,17.332 Z"></path>
                    <path d="M65.8777444,17.176 C65.8777444,20.44 65.0156391,23.02 63.2894737,24.914 C61.7470677,26.6 59.8293233,27.442 57.5401504,27.442 C55.0691729,27.442 53.2941353,26.534 52.2150376,24.718 L52.1368421,24.718 L52.1368421,34.828 L47.9690226,34.828 L47.9690226,14.134 C47.9690226,12.082 47.9162406,9.976 47.8145865,7.816 L51.48,7.816 L51.7126316,10.858 L51.7908271,10.858 C53.178797,8.566 55.2881203,7.422 58.1207519,7.422 C60.3317293,7.422 62.1790977,8.316 63.6609023,10.106 C65.1368421,11.898 65.8777444,14.254 65.8777444,17.176 L65.8777444,17.176 Z M61.6317293,17.332 C61.6317293,15.464 61.2192481,13.924 60.3942857,12.712 C59.4930827,11.448 58.2869173,10.816 56.7679699,10.816 C55.7377444,10.816 54.8052632,11.168 53.9685714,11.862 C53.1318797,12.562 52.5864662,13.476 52.3303759,14.608 C52.2033083,15.136 52.1368421,15.568 52.1368421,15.908 L52.1368421,19.108 C52.1368421,20.504 52.555188,21.682 53.3879699,22.644 C54.2246617,23.604 55.3115789,24.086 56.6526316,24.086 C58.222406,24.086 59.4442105,23.466 60.3180451,22.23 C61.1938346,20.992 61.6317293,19.36 61.6317293,17.332 L61.6317293,17.332 Z"></path>
                    <path d="M90.0010526,19.544 C90.0010526,21.808 89.232782,23.65 87.6903759,25.072 C85.9954887,26.626 83.6359398,27.402 80.6039098,27.402 C77.8045113,27.402 75.5603008,26.85 73.8615038,25.744 L74.827218,22.19 C76.6569925,23.322 78.6646617,23.89 80.8521805,23.89 C82.4219549,23.89 83.6437594,23.526 84.5215038,22.802 C85.3953383,22.078 85.8312782,21.106 85.8312782,19.894 C85.8312782,18.814 85.4715789,17.904 84.7502256,17.166 C84.032782,16.428 82.8344361,15.742 81.1610526,15.108 C76.6061654,13.37 74.3306767,10.824 74.3306767,7.476 C74.3306767,5.288 75.1282707,3.494 76.7254135,2.098 C78.3166917,0.7 80.4396992,0.002 83.0944361,0.002 C85.4618045,0.002 87.4284211,0.424 88.9981955,1.266 L87.9562406,4.742 C86.4900752,3.926 84.8323308,3.518 82.9771429,3.518 C81.5109774,3.518 80.3654135,3.888 79.5443609,4.624 C78.8503759,5.282 78.502406,6.084 78.502406,7.034 C78.502406,8.086 78.8992481,8.956 79.6968421,9.64 C80.3908271,10.272 81.6517293,10.956 83.4815038,11.694 C85.7198496,12.616 87.3639098,13.694 88.4215038,14.93 C89.475188,16.162 90.0010526,17.704 90.0010526,19.544 L90.0010526,19.544 Z"></path>
                    <path d="M103.781053,11.016 L99.1870677,11.016 L99.1870677,20.334 C99.1870677,22.704 99.996391,23.888 101.618947,23.888 C102.363759,23.888 102.981504,23.822 103.470226,23.69 L103.585564,26.928 C102.764511,27.242 101.683459,27.4 100.344361,27.4 C98.6983459,27.4 97.4120301,26.886 96.4834586,25.86 C95.558797,24.832 95.0935338,23.108 95.0935338,20.686 L95.0935338,11.012 L92.3566917,11.012 L92.3566917,7.812 L95.0935338,7.812 L95.0935338,4.298 L99.1870677,3.034 L99.1870677,7.812 L103.781053,7.812 L103.781053,11.016 L103.781053,11.016 Z"></path>
                    <path d="M124.508722,17.254 C124.508722,20.204 123.683759,22.626 122.037744,24.52 C120.311579,26.47 118.020451,27.442 115.164361,27.442 C112.41188,27.442 110.220451,26.508 108.586165,24.64 C106.95188,22.772 106.134737,20.414 106.134737,17.572 C106.134737,14.598 106.975338,12.162 108.662406,10.268 C110.345564,8.372 112.617143,7.424 115.473233,7.424 C118.225714,7.424 120.440602,8.358 122.11203,10.228 C123.711128,12.042 124.508722,14.384 124.508722,17.254 L124.508722,17.254 Z M120.184511,17.392 C120.184511,15.622 119.815038,14.104 119.066316,12.838 C118.192481,11.306 116.943308,10.542 115.324662,10.542 C113.649323,10.542 112.376692,11.308 111.502857,12.838 C110.754135,14.106 110.384662,15.648 110.384662,17.472 C110.384662,19.242 110.754135,20.76 111.502857,22.024 C112.40406,23.556 113.663008,24.32 115.287519,24.32 C116.878797,24.32 118.12797,23.54 119.029173,21.984 C119.797444,20.694 120.184511,19.16 120.184511,17.392 L120.184511,17.392 Z"></path>
                    <path d="M138.05609,11.566 C137.643609,11.488 137.203759,11.448 136.742406,11.448 C135.276241,11.448 134.142406,12.014 133.344812,13.148 C132.650827,14.148 132.302857,15.412 132.302857,16.938 L132.302857,27.008 L128.136992,27.008 L128.17609,13.86 C128.17609,11.648 128.123308,9.634 128.019699,7.818 L131.649925,7.818 L131.802406,11.49 L131.917744,11.49 C132.357594,10.228 133.051579,9.212 134.001654,8.45 C134.930226,7.764 135.933083,7.422 137.014135,7.422 C137.399248,7.422 137.747218,7.45 138.05609,7.5 L138.05609,11.566 L138.05609,11.566 Z"></path>
                    <path d="M156.69594,16.504 C156.69594,17.268 156.647068,17.912 156.543459,18.438 L144.04,18.438 C144.088872,20.334 144.692932,21.784 145.854135,22.784 C146.90782,23.678 148.270376,24.126 149.943759,24.126 C151.795038,24.126 153.48406,23.824 155.003008,23.218 L155.65594,26.178 C153.880902,26.97 151.785263,27.364 149.367068,27.364 C146.458195,27.364 144.174887,26.488 142.513233,24.738 C140.855489,22.988 140.024662,20.638 140.024662,17.69 C140.024662,14.796 140.796842,12.386 142.343158,10.464 C143.961805,8.412 146.149323,7.386 148.901805,7.386 C151.605414,7.386 153.65218,8.412 155.042105,10.464 C156.142707,12.094 156.69594,14.11 156.69594,16.504 L156.69594,16.504 Z M152.721654,15.398 C152.749023,14.134 152.477293,13.042 151.912331,12.12 C151.190977,10.934 150.082556,10.342 148.590977,10.342 C147.228421,10.342 146.12,10.92 145.273534,12.08 C144.579549,13.002 144.167068,14.108 144.04,15.396 L152.721654,15.396 L152.721654,15.398 Z"></path>
                </g>
                <g transform="translate(84.060150, 12.000000)" id="Shape" fill="#FFFFFF">
                    <path d="M9.87218045,6.018 C9.87218045,8.372 9.18210526,10.144 7.80390977,11.334 C6.52736842,12.432 4.71323308,12.982 2.36345865,12.982 C1.19834586,12.982 0.201353383,12.93 -0.633383459,12.826 L-0.633383459,-0.036 C0.455488722,-0.216 1.62842105,-0.308 2.89518797,-0.308 C5.13353383,-0.308 6.8206015,0.19 7.95834586,1.186 C9.23293233,2.312 9.87218045,3.922 9.87218045,6.018 L9.87218045,6.018 Z M7.71203008,6.076 C7.71203008,4.55 7.31714286,3.38 6.52736842,2.564 C5.73759398,1.75 4.58421053,1.342 3.06526316,1.342 C2.42015038,1.342 1.87082707,1.386 1.41533835,1.478 L1.41533835,11.256 C1.6675188,11.296 2.12887218,11.314 2.7993985,11.314 C4.36721805,11.314 5.57729323,10.868 6.42962406,9.976 C7.28195489,9.084 7.71203008,7.784 7.71203008,6.076 L7.71203008,6.076 Z"></path>
                    <path d="M21.3258647,8.074 C21.3258647,9.524 20.921203,10.712 20.1118797,11.644 C19.2634586,12.602 18.1393985,13.08 16.7357895,13.08 C15.3830075,13.08 14.3058647,12.622 13.502406,11.702 C12.7009023,10.784 12.3001504,9.626 12.3001504,8.23 C12.3001504,6.77 12.7126316,5.572 13.5415038,4.642 C14.3703759,3.712 15.4846617,3.246 16.8882707,3.246 C18.2410526,3.246 19.3279699,3.704 20.1509774,4.622 C20.9329323,5.514 21.3258647,6.666 21.3258647,8.074 L21.3258647,8.074 Z M19.2009023,8.142 C19.2009023,7.272 19.0171429,6.526 18.6515789,5.904 C18.2215038,5.152 17.6096241,4.776 16.813985,4.776 C15.9909774,4.776 15.3654135,5.152 14.9353383,5.904 C14.5678195,6.526 14.386015,7.284 14.386015,8.18 C14.386015,9.05 14.5697744,9.796 14.9353383,10.418 C15.3790977,11.17 15.9968421,11.546 16.7944361,11.546 C17.576391,11.546 18.1902256,11.164 18.6320301,10.398 C19.0112782,9.764 19.2009023,9.012 19.2009023,8.142 L19.2009023,8.142 Z"></path>
                    <path d="M36.6834586,3.438 L33.8,12.866 L31.9233083,12.866 L30.7288722,8.772 C30.4258647,7.75 30.1795489,6.734 29.9879699,5.726 L29.9508271,5.726 C29.7729323,6.762 29.5266165,7.776 29.2099248,8.772 L27.941203,12.866 L26.0430075,12.866 L23.3315789,3.438 L25.4369925,3.438 L26.4789474,7.92 C26.7311278,8.98 26.9383459,9.99 27.1045113,10.946 L27.1416541,10.946 C27.2941353,10.158 27.5463158,9.154 27.9021053,7.94 L29.2099248,3.44 L30.8793985,3.44 L32.1324812,7.844 C32.4354887,8.918 32.6818045,9.952 32.8714286,10.948 L32.9281203,10.948 C33.0669173,9.978 33.2760902,8.944 33.5536842,7.844 L34.6718797,3.44 L36.6834586,3.44 L36.6834586,3.438 Z"></path>
                    <path d="M47.3043609,12.866 L45.2556391,12.866 L45.2556391,7.466 C45.2556391,5.802 44.6378947,4.97 43.3984962,4.97 C42.7905263,4.97 42.2998496,5.198 41.9186466,5.656 C41.5413534,6.114 41.3497744,6.654 41.3497744,7.272 L41.3497744,12.864 L39.3010526,12.864 L39.3010526,6.132 C39.3010526,5.304 39.2756391,4.406 39.2267669,3.434 L41.027218,3.434 L41.1230075,4.908 L41.1796992,4.908 C41.4181955,4.45 41.773985,4.072 42.241203,3.77 C42.796391,3.418 43.4180451,3.24 44.0983459,3.24 C44.9584962,3.24 45.673985,3.524 46.2428571,4.094 C46.9505263,4.792 47.3043609,5.834 47.3043609,7.218 L47.3043609,12.866 L47.3043609,12.866 Z"></path>
                    <path d="M52.953985,12.866 L50.907218,12.866 L50.907218,-0.888 L52.953985,-0.888 L52.953985,12.866 L52.953985,12.866 Z"></path>
                    <path d="M65.0156391,8.074 C65.0156391,9.524 64.6109774,10.712 63.8016541,11.644 C62.9532331,12.602 61.827218,13.08 60.4255639,13.08 C59.0708271,13.08 57.9936842,12.622 57.1921805,11.702 C56.3906767,10.784 55.9899248,9.626 55.9899248,8.23 C55.9899248,6.77 56.402406,5.572 57.2312782,4.642 C58.0601504,3.712 59.1744361,3.246 60.5760902,3.246 C61.9308271,3.246 63.0157895,3.704 63.8407519,4.622 C64.6227068,5.514 65.0156391,6.666 65.0156391,8.074 L65.0156391,8.074 Z M62.8887218,8.142 C62.8887218,7.272 62.7049624,6.526 62.3393985,5.904 C61.9112782,5.152 61.2974436,4.776 60.5037594,4.776 C59.678797,4.776 59.0532331,5.152 58.6251128,5.904 C58.257594,6.526 58.0757895,7.284 58.0757895,8.18 C58.0757895,9.05 58.2595489,9.796 58.6251128,10.418 C59.0688722,11.17 59.6866165,11.546 60.4842105,11.546 C61.2661654,11.546 61.8780451,11.164 62.3198496,10.398 C62.7010526,9.764 62.8887218,9.012 62.8887218,8.142 L62.8887218,8.142 Z"></path>
                    <path d="M74.9308271,12.866 L73.0912782,12.866 L72.938797,11.78 L72.8821053,11.78 C72.2526316,12.646 71.3553383,13.08 70.1902256,13.08 C69.3203008,13.08 68.6165414,12.794 68.0867669,12.226 C67.6058647,11.71 67.3654135,11.068 67.3654135,10.306 C67.3654135,9.154 67.8345865,8.276 68.778797,7.668 C69.7210526,7.06 71.0464662,6.762 72.7530827,6.776 L72.7530827,6.6 C72.7530827,5.358 72.1157895,4.738 70.8392481,4.738 C69.9302256,4.738 69.1287218,4.972 68.4366917,5.436 L68.0203008,4.06 C68.8765414,3.518 69.9341353,3.246 71.1813534,3.246 C73.5897744,3.246 74.7978947,4.546 74.7978947,7.146 L74.7978947,10.618 C74.7978947,11.56 74.8428571,12.31 74.9308271,12.866 L74.9308271,12.866 Z M72.8039098,9.626 L72.8039098,8.172 C70.5440602,8.132 69.4141353,8.766 69.4141353,10.072 C69.4141353,10.564 69.5431579,10.932 69.8070677,11.178 C70.0709774,11.424 70.407218,11.546 70.8079699,11.546 C71.257594,11.546 71.6778947,11.4 72.0610526,11.11 C72.4461654,10.818 72.6827068,10.448 72.7706767,9.994 C72.7921805,9.892 72.8039098,9.768 72.8039098,9.626 L72.8039098,9.626 Z"></path>
                    <path d="M86.5721805,12.866 L84.7541353,12.866 L84.6583459,11.352 L84.6016541,11.352 C84.0210526,12.504 83.0318797,13.08 81.6419549,13.08 C80.5315789,13.08 79.6069173,12.634 78.8738346,11.742 C78.1407519,10.85 77.775188,9.692 77.775188,8.27 C77.775188,6.744 78.1720301,5.508 78.9696241,4.564 C79.7418045,3.684 80.6879699,3.244 81.813985,3.244 C83.0514286,3.244 83.9174436,3.67 84.4100752,4.524 L84.4491729,4.524 L84.4491729,-0.888 L86.4998496,-0.888 L86.4998496,10.326 C86.4998496,11.244 86.5233083,12.09 86.5721805,12.866 L86.5721805,12.866 Z M84.4491729,8.89 L84.4491729,7.318 C84.4491729,7.046 84.4296241,6.826 84.3924812,6.658 C84.2771429,6.154 84.0288722,5.73 83.6515789,5.388 C83.2703759,5.046 82.8109774,4.874 82.281203,4.874 C81.5168421,4.874 80.9186466,5.184 80.478797,5.806 C80.0428571,6.428 79.8219549,7.222 79.8219549,8.192 C79.8219549,9.124 80.0311278,9.88 80.4514286,10.462 C80.895188,11.082 81.4933835,11.392 82.2421053,11.392 C82.9145865,11.392 83.4521805,11.134 83.8607519,10.616 C84.2556391,10.138 84.4491729,9.562 84.4491729,8.89 L84.4491729,8.89 Z"></path>
                    <path d="M104.093835,8.074 C104.093835,9.524 103.689173,10.712 102.87985,11.644 C102.031429,12.602 100.909323,13.08 99.5037594,13.08 C98.1529323,13.08 97.0757895,12.622 96.2703759,11.702 C95.4688722,10.784 95.0681203,9.626 95.0681203,8.23 C95.0681203,6.77 95.4806015,5.572 96.3094737,4.642 C97.1383459,3.712 98.2526316,3.246 99.6581955,3.246 C101.009023,3.246 102.097895,3.704 102.918947,4.622 C103.700902,5.514 104.093835,6.666 104.093835,8.074 L104.093835,8.074 Z M101.970827,8.142 C101.970827,7.272 101.787068,6.526 101.421504,5.904 C100.989474,5.152 100.379549,4.776 99.5819549,4.776 C98.7609023,4.776 98.1353383,5.152 97.7033083,5.904 C97.3357895,6.526 97.153985,7.284 97.153985,8.18 C97.153985,9.05 97.3377444,9.796 97.7033083,10.418 C98.1470677,11.17 98.764812,11.546 99.562406,11.546 C100.344361,11.546 100.96015,11.164 101.401955,10.398 C101.779248,9.764 101.970827,9.012 101.970827,8.142 L101.970827,8.142 Z"></path>
                    <path d="M115.109624,12.866 L113.062857,12.866 L113.062857,7.466 C113.062857,5.802 112.445113,4.97 111.203759,4.97 C110.595789,4.97 110.105113,5.198 109.725865,5.656 C109.346617,6.114 109.156992,6.654 109.156992,7.272 L109.156992,12.864 L107.106316,12.864 L107.106316,6.132 C107.106316,5.304 107.082857,4.406 107.033985,3.434 L108.832481,3.434 L108.928271,4.908 L108.984962,4.908 C109.225414,4.45 109.581203,4.072 110.046466,3.77 C110.603609,3.418 111.223308,3.24 111.905564,3.24 C112.763759,3.24 113.479248,3.524 114.04812,4.094 C114.757744,4.792 115.109624,5.834 115.109624,7.218 L115.109624,12.866 L115.109624,12.866 Z"></path>
                    <path d="M128.897444,5.008 L126.641504,5.008 L126.641504,9.588 C126.641504,10.752 127.042256,11.334 127.83594,11.334 C128.203459,11.334 128.508421,11.302 128.748872,11.236 L128.801654,12.826 C128.396992,12.982 127.865263,13.06 127.210376,13.06 C126.401053,13.06 125.771579,12.808 125.31609,12.304 C124.858647,11.8 124.63188,10.952 124.63188,9.762 L124.63188,5.008 L123.284962,5.008 L123.284962,3.438 L124.63188,3.438 L124.63188,1.71 L126.639549,1.09 L126.639549,3.436 L128.895489,3.436 L128.895489,5.008 L128.897444,5.008 Z"></path>
                    <path d="M139.743158,12.866 L137.692481,12.866 L137.692481,7.506 C137.692481,5.816 137.074737,4.97 135.837293,4.97 C134.887218,4.97 134.238195,5.46 133.882406,6.44 C133.821805,6.646 133.786617,6.898 133.786617,7.194 L133.786617,12.864 L131.73985,12.864 L131.73985,-0.888 L133.786617,-0.888 L133.786617,4.794 L133.825714,4.794 C134.470827,3.76 135.395489,3.244 136.593835,3.244 C137.442256,3.244 138.14406,3.528 138.701203,4.098 C139.395188,4.808 139.743158,5.864 139.743158,7.26 L139.743158,12.866 L139.743158,12.866 Z"></path>
                    <path d="M150.930977,7.706 C150.930977,8.082 150.903609,8.398 150.854737,8.656 L144.710526,8.656 C144.737895,9.588 145.031128,10.298 145.6,10.79 C146.12,11.23 146.790526,11.45 147.611579,11.45 C148.520602,11.45 149.349474,11.302 150.096241,11.004 L150.416842,12.46 C149.543008,12.848 148.514737,13.042 147.324211,13.042 C145.897143,13.042 144.773083,12.612 143.95985,11.752 C143.142707,10.892 142.738045,9.738 142.738045,8.29 C142.738045,6.868 143.115338,5.684 143.875789,4.74 C144.669474,3.732 145.742707,3.228 147.097444,3.228 C148.422857,3.228 149.429624,3.732 150.109925,4.74 C150.659248,5.54 150.930977,6.53 150.930977,7.706 L150.930977,7.706 Z M148.97609,7.164 C148.991729,6.542 148.856842,6.006 148.579248,5.554 C148.223459,4.972 147.681955,4.68 146.948872,4.68 C146.280301,4.68 145.734887,4.964 145.318496,5.534 C144.978346,5.988 144.776992,6.53 144.710526,7.164 L148.97609,7.164 L148.97609,7.164 Z"></path>
                </g>
            </g>
        </g>
    </g>
</svg>